<svg id="visual" viewBox="0 0 900 600" width="900" height="600" xmlns="http://www.w3.org/2000/svg" xmlns:xlink="http://www.w3.org/1999/xlink" version="1.1"><g stroke-width="1" stroke-linejoin="bevel"><path d="M414 273L484 238L407 229Z" fill="#205a7a" stroke="#205a7a"></path><path d="M484 238L500 136L407 229Z" fill="#0c2435" stroke="#0c2435"></path><path d="M414 273L536 334L484 238Z" fill="#112e42" stroke="#112e42"></path><path d="M484 238L573 131L500 136Z" fill="#081a28" stroke="#081a28"></path><path d="M536 334L575 276L484 238Z" fill="#1d4e6b" stroke="#1d4e6b"></path><path d="M281 230L306 266L407 229Z" fill="#0c2435" stroke="#0c2435"></path><path d="M407 229L306 266L414 273Z" fill="#246688" stroke="#246688"></path><path d="M414 273L491 413L536 334Z" fill="#0c2435" stroke="#0c2435"></path><path d="M323 118L281 230L407 229Z" fill="#1d4e6b" stroke="#1d4e6b"></path><path d="M575 276L573 131L484 238Z" fill="#205a7a" stroke="#205a7a"></path><path d="M405 437L491 413L414 273Z" fill="#112e42" stroke="#112e42"></path><path d="M663 307L631 222L575 276Z" fill="#00101c" stroke="#00101c"></path><path d="M409 69L407 229L500 136Z" fill="#15384f" stroke="#15384f"></path><path d="M409 69L323 118L407 229Z" fill="#277297" stroke="#277297"></path><path d="M464 0L409 69L500 136Z" fill="#112e42" stroke="#112e42"></path><path d="M663 307L575 276L536 334Z" fill="#081a28" stroke="#081a28"></path><path d="M575 276L631 222L573 131Z" fill="#205a7a" stroke="#205a7a"></path><path d="M291 417L414 273L306 266Z" fill="#15384f" stroke="#15384f"></path><path d="M291 417L405 437L414 273Z" fill="#205a7a" stroke="#205a7a"></path><path d="M323 118L232 192L281 230Z" fill="#00101c" stroke="#00101c"></path><path d="M228 362L291 417L306 266Z" fill="#19435d" stroke="#19435d"></path><path d="M632 437L663 307L536 334Z" fill="#0c2435" stroke="#0c2435"></path><path d="M207 305L306 266L281 230Z" fill="#15384f" stroke="#15384f"></path><path d="M232 192L207 305L281 230Z" fill="#1d4e6b" stroke="#1d4e6b"></path><path d="M434 520L520 479L491 413Z" fill="#112e42" stroke="#112e42"></path><path d="M491 413L632 437L536 334Z" fill="#297ea6" stroke="#297ea6"></path><path d="M434 520L491 413L405 437Z" fill="#15384f" stroke="#15384f"></path><path d="M207 305L228 362L306 266Z" fill="#081a28" stroke="#081a28"></path><path d="M565 0L464 0L500 136Z" fill="#081a28" stroke="#081a28"></path><path d="M409 69L271 0L323 118Z" fill="#205a7a" stroke="#205a7a"></path><path d="M323 118L197 60L232 192Z" fill="#1d4e6b" stroke="#1d4e6b"></path><path d="M464 0L418 0L409 69Z" fill="#1d4e6b" stroke="#1d4e6b"></path><path d="M520 479L632 437L491 413Z" fill="#112e42" stroke="#112e42"></path><path d="M631 222L662 82L573 131Z" fill="#246688" stroke="#246688"></path><path d="M573 131L565 0L500 136Z" fill="#15384f" stroke="#15384f"></path><path d="M732 197L662 82L631 222Z" fill="#246688" stroke="#246688"></path><path d="M662 82L565 0L573 131Z" fill="#112e42" stroke="#112e42"></path><path d="M279 519L434 520L405 437Z" fill="#112e42" stroke="#112e42"></path><path d="M520 479L579 497L632 437Z" fill="#19435d" stroke="#19435d"></path><path d="M519 600L579 497L520 479Z" fill="#277297" stroke="#277297"></path><path d="M761 287L732 197L663 307Z" fill="#246688" stroke="#246688"></path><path d="M663 307L732 197L631 222Z" fill="#081a28" stroke="#081a28"></path><path d="M418 0L271 0L409 69Z" fill="#0c2435" stroke="#0c2435"></path><path d="M74 185L100 334L207 305Z" fill="#1d4e6b" stroke="#1d4e6b"></path><path d="M271 0L197 60L323 118Z" fill="#00101c" stroke="#00101c"></path><path d="M663 483L703 425L632 437Z" fill="#246688" stroke="#246688"></path><path d="M632 437L703 425L663 307Z" fill="#112e42" stroke="#112e42"></path><path d="M205 466L279 519L291 417Z" fill="#15384f" stroke="#15384f"></path><path d="M291 417L279 519L405 437Z" fill="#0c2435" stroke="#0c2435"></path><path d="M205 466L291 417L228 362Z" fill="#15384f" stroke="#15384f"></path><path d="M703 425L761 287L663 307Z" fill="#1d4e6b" stroke="#1d4e6b"></path><path d="M579 497L663 483L632 437Z" fill="#112e42" stroke="#112e42"></path><path d="M100 334L205 466L228 362Z" fill="#0c2435" stroke="#0c2435"></path><path d="M100 334L228 362L207 305Z" fill="#00101c" stroke="#00101c"></path><path d="M831 128L691 0L662 82Z" fill="#00101c" stroke="#00101c"></path><path d="M662 82L691 0L565 0Z" fill="#112e42" stroke="#112e42"></path><path d="M831 128L662 82L732 197Z" fill="#112e42" stroke="#112e42"></path><path d="M185 0L135 76L197 60Z" fill="#081a28" stroke="#081a28"></path><path d="M197 60L135 76L232 192Z" fill="#1d4e6b" stroke="#1d4e6b"></path><path d="M313 600L419 600L434 520Z" fill="#00101c" stroke="#00101c"></path><path d="M434 520L519 600L520 479Z" fill="#00101c" stroke="#00101c"></path><path d="M579 497L626 600L663 483Z" fill="#112e42" stroke="#112e42"></path><path d="M74 185L207 305L232 192Z" fill="#19435d" stroke="#19435d"></path><path d="M271 0L185 0L197 60Z" fill="#297ea6" stroke="#297ea6"></path><path d="M900 300L802 230L761 287Z" fill="#081a28" stroke="#081a28"></path><path d="M761 287L802 230L732 197Z" fill="#246688" stroke="#246688"></path><path d="M419 600L519 600L434 520Z" fill="#0c2435" stroke="#0c2435"></path><path d="M135 76L74 185L232 192Z" fill="#0c2435" stroke="#0c2435"></path><path d="M239 600L313 600L279 519Z" fill="#081a28" stroke="#081a28"></path><path d="M279 519L313 600L434 520Z" fill="#112e42" stroke="#112e42"></path><path d="M0 263L69 371L100 334Z" fill="#297ea6" stroke="#297ea6"></path><path d="M100 334L69 371L205 466Z" fill="#205a7a" stroke="#205a7a"></path><path d="M205 466L239 600L279 519Z" fill="#1d4e6b" stroke="#1d4e6b"></path><path d="M818 467L811 437L703 425Z" fill="#15384f" stroke="#15384f"></path><path d="M703 425L811 437L761 287Z" fill="#15384f" stroke="#15384f"></path><path d="M519 600L626 600L579 497Z" fill="#297ea6" stroke="#297ea6"></path><path d="M802 230L831 128L732 197Z" fill="#00101c" stroke="#00101c"></path><path d="M69 371L135 509L205 466Z" fill="#1d4e6b" stroke="#1d4e6b"></path><path d="M135 509L239 600L205 466Z" fill="#081a28" stroke="#081a28"></path><path d="M818 467L703 425L663 483Z" fill="#205a7a" stroke="#205a7a"></path><path d="M802 230L900 201L831 128Z" fill="#112e42" stroke="#112e42"></path><path d="M770 600L818 467L663 483Z" fill="#246688" stroke="#246688"></path><path d="M900 300L900 201L802 230Z" fill="#297ea6" stroke="#297ea6"></path><path d="M135 76L0 85L74 185Z" fill="#15384f" stroke="#15384f"></path><path d="M185 0L81 0L135 76Z" fill="#1d4e6b" stroke="#1d4e6b"></path><path d="M74 185L0 263L100 334Z" fill="#246688" stroke="#246688"></path><path d="M69 371L0 406L135 509Z" fill="#246688" stroke="#246688"></path><path d="M0 221L0 263L74 185Z" fill="#112e42" stroke="#112e42"></path><path d="M0 85L0 221L74 185Z" fill="#081a28" stroke="#081a28"></path><path d="M626 600L713 600L663 483Z" fill="#081a28" stroke="#081a28"></path><path d="M831 128L826 0L691 0Z" fill="#15384f" stroke="#15384f"></path><path d="M900 300L761 287L900 375Z" fill="#205a7a" stroke="#205a7a"></path><path d="M831 128L900 78L826 0Z" fill="#112e42" stroke="#112e42"></path><path d="M900 375L761 287L811 437Z" fill="#081a28" stroke="#081a28"></path><path d="M0 263L0 406L69 371Z" fill="#15384f" stroke="#15384f"></path><path d="M135 509L113 600L239 600Z" fill="#00101c" stroke="#00101c"></path><path d="M81 0L0 85L135 76Z" fill="#246688" stroke="#246688"></path><path d="M900 486L900 375L811 437Z" fill="#00101c" stroke="#00101c"></path><path d="M900 486L811 437L818 467Z" fill="#0c2435" stroke="#0c2435"></path><path d="M713 600L770 600L663 483Z" fill="#205a7a" stroke="#205a7a"></path><path d="M0 514L113 600L135 509Z" fill="#081a28" stroke="#081a28"></path><path d="M900 201L900 78L831 128Z" fill="#0c2435" stroke="#0c2435"></path><path d="M81 0L0 0L0 85Z" fill="#112e42" stroke="#112e42"></path><path d="M900 600L900 486L818 467Z" fill="#0c2435" stroke="#0c2435"></path><path d="M900 78L900 0L826 0Z" fill="#081a28" stroke="#081a28"></path><path d="M0 406L0 514L135 509Z" fill="#0c2435" stroke="#0c2435"></path><path d="M0 514L0 600L113 600Z" fill="#0c2435" stroke="#0c2435"></path><path d="M770 600L900 600L818 467Z" fill="#00101c" stroke="#00101c"></path></g></svg>